<svg width="18" height="16" viewBox="0 0 18 16" fill="none" xmlns="http://www.w3.org/2000/svg">
<path d="M13.1667 0.916016H4.83332C2.33332 0.916016 0.666656 2.16602 0.666656 5.08268V10.916C0.666656 13.8327 2.33332 15.0827 4.83332 15.0827H13.1667C15.6667 15.0827 17.3333 13.8327 17.3333 10.916V5.08268C17.3333 2.16602 15.6667 0.916016 13.1667 0.916016ZM13.5583 5.99102L10.95 8.07435C10.4 8.51602 9.69999 8.73268 8.99999 8.73268C8.29999 8.73268 7.59166 8.51602 7.04999 8.07435L4.44166 5.99102C4.17499 5.77435 4.13332 5.37435 4.34166 5.10768C4.55832 4.84102 4.94999 4.79102 5.21666 5.00768L7.82499 7.09102C8.45832 7.59935 9.53332 7.59935 10.1667 7.09102L12.775 5.00768C13.0417 4.79102 13.4417 4.83268 13.65 5.10768C13.8667 5.37435 13.825 5.77435 13.5583 5.99102Z" fill="#544D58"/>
</svg>
