<svg width="19" height="14" viewBox="0 0 19 14" fill="none" xmlns="http://www.w3.org/2000/svg">
<path d="M14.5068 12.7286C14.5843 12.8188 14.6338 12.9298 14.6491 13.0478C14.6644 13.1658 14.6448 13.2857 14.5927 13.3927C14.5433 13.5002 14.4639 13.5913 14.3642 13.655C14.2645 13.7187 14.1485 13.7524 14.0302 13.7521H0.62394C0.505594 13.7524 0.389646 13.7187 0.289915 13.655C0.190185 13.5913 0.110876 13.5002 0.0614402 13.3927C0.0093657 13.2857 -0.0102458 13.1658 0.00502564 13.0478C0.0202971 12.9298 0.0697832 12.8188 0.147378 12.7286C1.289 11.3571 2.80296 10.3451 4.50675 9.81456C3.52958 9.20241 2.77811 8.28895 2.3658 7.2121C1.95349 6.13526 1.90273 4.95351 2.22119 3.84528C2.53966 2.73705 3.21004 1.76252 4.13113 1.06884C5.05221 0.375163 6.17399 0 7.32706 0C8.48014 0 9.60192 0.375163 10.523 1.06884C11.4441 1.76252 12.1145 2.73705 12.4329 3.84528C12.7514 4.95351 12.7006 6.13526 12.2883 7.2121C11.876 8.28895 11.1245 9.20241 10.1474 9.81456C11.8512 10.3451 13.3651 11.3571 14.5068 12.7286ZM18.5146 9.5333C18.4592 9.62915 18.3795 9.70858 18.2834 9.76348C18.1873 9.81839 18.0783 9.8468 17.9677 9.8458C17.8576 9.84669 17.7494 9.81694 17.6552 9.75987L17.2958 9.54893C17.1207 9.69906 16.9194 9.81559 16.7021 9.89268V10.3146C16.7021 10.4803 16.6362 10.6393 16.519 10.7565C16.4018 10.8737 16.2428 10.9396 16.0771 10.9396C15.9113 10.9396 15.7523 10.8737 15.6351 10.7565C15.5179 10.6393 15.4521 10.4803 15.4521 10.3146V9.89268C15.2347 9.81559 15.0334 9.69906 14.8583 9.54893L14.4989 9.75987C14.4048 9.81694 14.2966 9.84669 14.1864 9.8458C14.0496 9.84498 13.9167 9.79924 13.8084 9.7156C13.7 9.63197 13.6221 9.51507 13.5866 9.38286C13.5511 9.25066 13.56 9.11045 13.6119 8.98379C13.6638 8.85713 13.7559 8.75101 13.8739 8.68174L14.2333 8.4708C14.1916 8.24353 14.1916 8.01058 14.2333 7.78331L13.8739 7.57237C13.8019 7.53256 13.7386 7.47876 13.6876 7.41411C13.6367 7.34947 13.5992 7.2753 13.5774 7.19595C13.5556 7.11661 13.5498 7.0337 13.5605 6.9521C13.5712 6.8705 13.598 6.79186 13.6396 6.7208C13.7243 6.57768 13.862 6.47367 14.0228 6.43127C14.1836 6.38888 14.3547 6.4115 14.4989 6.49424L14.8583 6.70518C15.0334 6.55505 15.2347 6.43852 15.4521 6.36143V5.93955C15.4521 5.77379 15.5179 5.61482 15.6351 5.49761C15.7523 5.3804 15.9113 5.31455 16.0771 5.31455C16.2428 5.31455 16.4018 5.3804 16.519 5.49761C16.6362 5.61482 16.7021 5.77379 16.7021 5.93955V6.36143C16.9194 6.43852 17.1207 6.55505 17.2958 6.70518L17.6552 6.49424C17.7995 6.4115 17.9705 6.38888 18.1313 6.43127C18.2922 6.47367 18.4298 6.57768 18.5146 6.7208C18.5561 6.79186 18.583 6.8705 18.5936 6.9521C18.6043 7.0337 18.5986 7.11661 18.5767 7.19595C18.5549 7.2753 18.5174 7.34947 18.4665 7.41411C18.4156 7.47876 18.3522 7.53256 18.2802 7.57237L17.9208 7.78331C17.9625 8.01058 17.9625 8.24353 17.9208 8.4708L18.2802 8.68174C18.3522 8.72155 18.4156 8.77535 18.4665 8.84C18.5174 8.90464 18.5549 8.97881 18.5767 9.05816C18.5986 9.1375 18.6043 9.22041 18.5936 9.30201C18.583 9.38361 18.5561 9.46225 18.5146 9.5333ZM16.0771 8.75205C16.2007 8.75205 16.3215 8.7154 16.4243 8.64672C16.5271 8.57805 16.6072 8.48044 16.6545 8.36623C16.7018 8.25203 16.7142 8.12636 16.6901 8.00512C16.6659 7.88388 16.6064 7.77252 16.519 7.68511C16.4316 7.5977 16.3202 7.53818 16.199 7.51406C16.0778 7.48995 15.9521 7.50233 15.8379 7.54963C15.7237 7.59694 15.6261 7.67704 15.5574 7.77982C15.4887 7.8826 15.4521 8.00344 15.4521 8.12705C15.4521 8.29282 15.5179 8.45179 15.6351 8.569C15.7523 8.68621 15.9113 8.75205 16.0771 8.75205Z" fill="#2E2C2F"/>
</svg>
