<svg width="20" height="21" viewBox="0 0 20 21" fill="none" xmlns="http://www.w3.org/2000/svg">
<path d="M8.76461 8.13867L8.33305 7.08203L7.901 8.13867H8.76461Z" fill="#2E2C2F"/>
<path d="M4.79167 3.14062C3.52602 3.14062 2.5 4.16664 2.5 5.43229V15.849C2.5 17.1146 3.52602 18.1406 4.79167 18.1406H10.0182C9.47917 17.2987 9.16667 16.2978 9.16667 15.224C9.16667 14.4857 9.31433 13.782 9.58183 13.1406H4.79167C4.44649 13.1406 4.16667 12.8608 4.16667 12.5156C4.16667 12.1705 4.44649 11.8906 4.79167 11.8906H10.3135C11.3048 10.6225 12.8489 9.80729 14.5833 9.80729C15.6572 9.80729 16.6581 10.1198 17.5 10.6588V5.43229C17.5 4.16664 16.474 3.14062 15.2083 3.14062H4.79167ZM7.70792 16.0573H4.79167C4.44649 16.0573 4.16667 15.7775 4.16667 15.4323C4.16667 15.0871 4.44648 14.8073 4.79167 14.8073H7.70792C8.0531 14.8073 8.33292 15.0871 8.33292 15.4323C8.33292 15.7775 8.0531 16.0573 7.70792 16.0573ZM8.91192 5.19378L10.7849 9.77938C10.9154 10.0989 10.7622 10.4638 10.4426 10.5943C10.1231 10.7248 9.75817 10.5715 9.62767 10.252L9.27517 9.38888H7.38986L7.03685 10.2522C6.90621 10.5717 6.5413 10.7248 6.2218 10.5942C5.9023 10.4635 5.7492 10.0986 5.87984 9.77912L7.75484 5.19356C7.85092 4.95858 8.0796 4.80506 8.3335 4.80511C8.58733 4.80515 8.81592 4.95876 8.91192 5.19378ZM13.75 5.43008V6.47182H14.7917C15.1369 6.47182 15.4167 6.75164 15.4167 7.09682C15.4167 7.442 15.1369 7.72183 14.7917 7.72183H13.75V8.76348C13.75 9.10862 13.4702 9.38846 13.125 9.38846C12.7798 9.38846 12.5 9.10862 12.5 8.76348V7.72183H11.4583C11.1132 7.72183 10.8333 7.442 10.8333 7.09682C10.8333 6.75164 11.1132 6.47182 11.4583 6.47182H12.5V5.43008C12.5 5.0849 12.7798 4.80508 13.125 4.80508C13.4702 4.80508 13.75 5.0849 13.75 5.43008Z" fill="#2E2C2F"/>
<path d="M19.1667 15.224C19.1667 12.6926 17.1147 10.6406 14.5833 10.6406C12.052 10.6406 10 12.6926 10 15.224C10 17.7553 12.052 19.8073 14.5833 19.8073C17.1147 19.8073 19.1667 17.7553 19.1667 15.224ZM15.0005 15.6406L15.0009 17.7269C15.0009 17.957 14.8144 18.1435 14.5842 18.1435C14.3542 18.1435 14.1676 17.957 14.1676 17.7269L14.1672 15.6406H12.0801C11.85 15.6406 11.6634 15.4541 11.6634 15.224C11.6634 14.9939 11.85 14.8073 12.0801 14.8073H14.1671L14.1667 12.7234C14.1667 12.4932 14.3532 12.3067 14.5833 12.3067C14.8134 12.3067 15 12.4932 15 12.7234L15.0004 14.8073H17.0858C17.316 14.8073 17.5025 14.9939 17.5025 15.224C17.5025 15.4541 17.316 15.6406 17.0858 15.6406H15.0005Z" fill="#2E2C2F"/>
</svg>
